<?xml version="1.0" encoding="UTF-8" standalone="no"?>
<svg
   xmlns:dc="http://purl.org/dc/elements/1.1/"
   xmlns:cc="http://creativecommons.org/ns#"
   xmlns:rdf="http://www.w3.org/1999/02/22-rdf-syntax-ns#"
   xmlns:svg="http://www.w3.org/2000/svg"
   xmlns="http://www.w3.org/2000/svg"
   version="1.1"
   id="svg4283"
   viewBox="0 0 31.999999 31.459999"
   height="8.8787107mm"
   width="9.0311108mm">
  <defs
     id="defs4285" />
  <metadata
     id="metadata4288">
    <rdf:RDF>
      <cc:Work
         rdf:about="">
        <dc:format>image/svg+xml</dc:format>
        <dc:type
           rdf:resource="http://purl.org/dc/dcmitype/StillImage" />
        <dc:title></dc:title>
      </cc:Work>
    </rdf:RDF>
  </metadata>
  <g
     transform="translate(-226.85714,-585.20363)"
     id="layer1">
    <path
       id="path31"
       d="m 246.92714,616.66363 c -0.06,-0.13 -0.1,-0.27 -0.1,-0.41 0,-0.53 0.02,-2.29 0.02,-4.48 0,-1.52 -0.51,-2.52 -1.09,-3.02 3.57,-0.41 7.31,-1.79 7.31,-8.07 0,-1.78 -0.62,-3.24 -1.65,-4.38 0.17,-0.41 0.72,-2.07 -0.16,-4.32 0,0 -1.34,-0.44 -4.39,1.67 -1.28,-0.36 -2.65,-0.54 -4.01,-0.55 -1.36,0.01 -2.73,0.19 -4,0.55 -3.06,-2.11 -4.4,-1.67 -4.4,-1.67 -0.87,2.25 -0.33,3.91 -0.16,4.32 -1.02,1.14 -1.65,2.6 -1.65,4.38 0,6.27 3.74,7.67 7.29,8.08 -0.46,0.41 -0.87,1.13 -1.02,2.18 -0.91,0.42 -3.23,1.14 -4.65,-1.35 0,0 -0.85,-1.57 -2.45,-1.69 0,0 -1.57,-0.02 -0.11,1 0,0 1.05,0.5 1.77,2.39 0,0 0.94,3.17 5.39,2.19 l 0.02,2.77 c 0,0.14 -0.04,0.28 -0.1,0.41 -6.86,-1.81 -11.93,-8.03 -11.93,-15.46 0,-8.84 7.16,-16 16,-16 8.84,0 16,7.16 16,16 0,7.43 -5.07,13.65 -11.93,15.46 z"
       style="clip-rule:evenodd;fill:#000000;fill-opacity:1;fill-rule:evenodd" />
  </g>
</svg>
