<?xml version="1.0" encoding="UTF-8" standalone="no"?>
<svg
   xmlns:dc="http://purl.org/dc/elements/1.1/"
   xmlns:cc="http://creativecommons.org/ns#"
   xmlns:rdf="http://www.w3.org/1999/02/22-rdf-syntax-ns#"
   xmlns:svg="http://www.w3.org/2000/svg"
   xmlns="http://www.w3.org/2000/svg"
   version="1.1"
   id="svg4283"
   viewBox="0 0 32.000002 32.000002"
   height="9.0311117mm"
   width="9.0311117mm">
  <defs
     id="defs4285" />
  <metadata
     id="metadata4288">
    <rdf:RDF>
      <cc:Work
         rdf:about="">
        <dc:format>image/svg+xml</dc:format>
        <dc:type
           rdf:resource="http://purl.org/dc/dcmitype/StillImage" />
        <dc:title></dc:title>
      </cc:Work>
    </rdf:RDF>
  </metadata>
  <g
     transform="translate(-201.52243,-561.3216)"
     id="layer1">
    <path
       id="path83"
       d="m 226.52243,576.7616 c 0,-1.42 -0.49,-2.5 -1.35,-3.22 -1.03,-0.86 -2.04,-1.28 -3.51,-1.28 -0.71,0 -1.18,0.11 -1.86,0.34 -0.69,0.24 -1.43,0.72 -2.28,1.31 l 0,-1.6 -3.27,0 0,12.01 3.26,0 0,-4.36 c 0,-1.28 0.05,-2.12 0.16,-2.5 0.21,-0.74 0.58,-1.32 1.12,-1.74 0.54,-0.42 1.19,-0.63 1.94,-0.63 0.58,0 1.06,0.13 1.46,0.38 0.39,0.25 0.67,0.62 0.83,1.11 0.16,0.48 0.24,1.46 0.24,2.93 l 0,4.81 3.26,0 0,-7.56 z m -14.73,-4.45 -3.27,0 0,12.01 3.27,0 0,-12.01 z m -0.48,-3.52 c -0.32,-0.31 -0.71,-0.47 -1.16,-0.47 -0.44,0 -0.83,0.15 -1.15,0.46 -0.31,0.31 -0.47,0.68 -0.47,1.11 0,0.45 0.16,0.83 0.48,1.15 0.32,0.31 0.71,0.47 1.16,0.47 0.45,0 0.83,-0.15 1.14,-0.46 0.32,-0.31 0.48,-0.69 0.48,-1.13 0,-0.44 -0.16,-0.82 -0.48,-1.13 z m 6.21,24.53 c -8.84,0 -16,-7.16 -16,-16 0,-8.84 7.16,-16 16,-16 8.84,0 16,7.16 16,16 0,8.84 -7.16,16 -16,16 z"
       style="clip-rule:evenodd;fill:#005987;fill-rule:evenodd" />
  </g>
</svg>
