<?xml version="1.0" encoding="UTF-8" standalone="no"?>
<svg
   xmlns:dc="http://purl.org/dc/elements/1.1/"
   xmlns:cc="http://creativecommons.org/ns#"
   xmlns:rdf="http://www.w3.org/1999/02/22-rdf-syntax-ns#"
   xmlns:svg="http://www.w3.org/2000/svg"
   xmlns="http://www.w3.org/2000/svg"
   version="1.1"
   id="svg4283"
   viewBox="0 0 31.999999 31.999999"
   height="9.0311108mm"
   width="9.0311108mm">
  <defs
     id="defs4285" />
  <metadata
     id="metadata4288">
    <rdf:RDF>
      <cc:Work
         rdf:about="">
        <dc:format>image/svg+xml</dc:format>
        <dc:type
           rdf:resource="http://purl.org/dc/dcmitype/StillImage" />
        <dc:title></dc:title>
      </cc:Work>
    </rdf:RDF>
  </metadata>
  <g
     transform="translate(-197.59889,-566.57098)"
     id="layer1">
    <path
       id="path5"
       d="m 205.59889,572.57098 0,3.52 c 0,0 12.98,0.92 13.78,14.4 l 3.34,0 c 0,0 0.88,-16.83 -17.12,-17.92 z m 0,9.54 c 0,0 7.57,0.34 7.96,8.46 l 3.35,0 c 0,0 0.16,-11.47 -11.31,-11.97 l 0,3.51 z m 2.5,8.46 c 1.38,0 2.5,-1.12 2.5,-2.5 0,-1.38 -1.12,-2.5 -2.5,-2.5 -1.38,0 -2.5,1.12 -2.5,2.5 0,1.38 1.12,2.5 2.5,2.5 z m 5.5,8 c -8.84,0 -16,-7.16 -16,-16 0,-8.84 7.16,-16 16,-16 8.84,0 16,7.16 16,16 0,8.84 -7.16,16 -16,16 z"
       style="clip-rule:evenodd;fill:#eb7323;fill-rule:evenodd" />
  </g>
</svg>
